<svg width="16" height="12" viewBox="0 0 16 12" fill="none" xmlns="http://www.w3.org/2000/svg">
<path d="M14.1808 1.00472C15.0392 1.91638 15.5 2.93888 15.5 4.59638C15.5 7.51305 13.4533 10.1272 10.475 11.4197L9.73083 10.2714C12.51 8.76805 13.0533 6.81722 13.2708 5.58722C12.8233 5.81888 12.2375 5.89972 11.6625 5.84638C10.1592 5.70722 8.97416 4.47305 8.97416 2.93888C8.97416 2.16534 9.28145 1.42347 9.82843 0.876489C10.3754 0.329508 11.1173 0.0222168 11.8908 0.0222168C12.785 0.0222168 13.6408 0.43055 14.1808 1.00472ZM5.8475 1.00472C6.70583 1.91638 7.16666 2.93888 7.16666 4.59638C7.16666 7.51305 5.12 10.1272 2.14166 11.4197L1.3975 10.2714C4.17666 8.76805 4.72 6.81722 4.93666 5.58722C4.48916 5.81888 3.90333 5.89972 3.32916 5.84638C1.82583 5.70805 0.641663 4.47388 0.641663 2.93888C0.641663 2.16534 0.948953 1.42347 1.49593 0.876489C2.04292 0.329508 2.78478 0.0222168 3.55833 0.0222168C4.4525 0.0222168 5.30833 0.43055 5.84833 1.00472" fill="#591A0E"/>
</svg>
