<svg width="24" height="23" viewBox="0 0 24 23" fill="none" xmlns="http://www.w3.org/2000/svg">
<g filter="url(#filter0_d_620_786)">
<path d="M8.36 13.83C8.15844 13.9993 8.03176 14.2412 8.00742 14.5033C7.98308 14.7654 8.06306 15.0265 8.23 15.23C8.31395 15.3313 8.41705 15.415 8.5334 15.4763C8.64975 15.5377 8.77706 15.5755 8.90803 15.5875C9.03901 15.5996 9.17108 15.5857 9.29669 15.5467C9.42229 15.5076 9.53896 15.4442 9.64 15.36C10.3085 14.821 11.1413 14.5271 12 14.5271C12.8587 14.5271 13.6915 14.821 14.36 15.36C14.5399 15.5091 14.7664 15.5905 15 15.59C15.2036 15.588 15.4017 15.5239 15.5679 15.4063C15.734 15.2887 15.8604 15.1231 15.9299 14.9318C15.9995 14.7405 16.009 14.5325 15.9572 14.3356C15.9054 14.1387 15.7947 13.9623 15.64 13.83C14.6081 13.0006 13.3239 12.5484 12 12.5484C10.6761 12.5484 9.39188 13.0006 8.36 13.83ZM9.21 9.04C9.39737 9.22625 9.65082 9.33079 9.915 9.33079C10.1792 9.33079 10.4326 9.22625 10.62 9.04C10.8063 8.85264 10.9108 8.59919 10.9108 8.335C10.9108 8.07081 10.8063 7.81736 10.62 7.63C10.0477 7.08699 9.2889 6.78428 8.5 6.78428C7.71111 6.78428 6.95228 7.08699 6.38 7.63C6.27532 7.71965 6.1903 7.82997 6.13028 7.95403C6.07026 8.07809 6.03653 8.21323 6.03121 8.35095C6.02589 8.48867 6.04909 8.626 6.09937 8.75432C6.14964 8.88265 6.2259 8.9992 6.32335 9.09665C6.42081 9.19411 6.53736 9.27036 6.66568 9.32064C6.79401 9.37091 6.93134 9.39412 7.06906 9.3888C7.20678 9.38348 7.34191 9.34975 7.46597 9.28973C7.59004 9.2297 7.70036 9.14468 7.79 9.04C7.88297 8.94627 7.99357 8.87188 8.11543 8.82111C8.23729 8.77034 8.36799 8.7442 8.5 8.7442C8.63202 8.7442 8.76272 8.77034 8.88458 8.82111C9.00644 8.87188 9.11704 8.94627 9.21 9.04ZM12 0.5C10.0222 0.5 8.08879 1.08649 6.4443 2.1853C4.79981 3.28412 3.51809 4.8459 2.76121 6.67317C2.00433 8.50043 1.8063 10.5111 2.19215 12.4509C2.578 14.3907 3.53041 16.1725 4.92894 17.5711C6.32746 18.9696 8.10929 19.922 10.0491 20.3079C11.9889 20.6937 13.9996 20.4957 15.8268 19.7388C17.6541 18.9819 19.2159 17.7002 20.3147 16.0557C21.4135 14.4112 22 12.4778 22 10.5C22 9.18678 21.7413 7.88642 21.2388 6.67317C20.7363 5.45991 19.9997 4.35752 19.0711 3.42893C18.1425 2.50035 17.0401 1.76375 15.8268 1.2612C14.6136 0.758658 13.3132 0.5 12 0.5ZM12 18.5C10.4178 18.5 8.87104 18.0308 7.55544 17.1518C6.23985 16.2727 5.21447 15.0233 4.60897 13.5615C4.00347 12.0997 3.84504 10.4911 4.15372 8.93928C4.4624 7.38743 5.22433 5.96197 6.34315 4.84315C7.46197 3.72433 8.88743 2.9624 10.4393 2.65372C11.9911 2.34504 13.5997 2.50346 15.0615 3.10896C16.5233 3.71447 17.7727 4.73984 18.6518 6.05544C19.5308 7.37103 20 8.91775 20 10.5C20 12.6217 19.1572 14.6566 17.6569 16.1569C16.1566 17.6571 14.1217 18.5 12 18.5ZM17.62 7.63C17.0477 7.08699 16.2889 6.78428 15.5 6.78428C14.7111 6.78428 13.9523 7.08699 13.38 7.63C13.2162 7.8213 13.1306 8.06738 13.1403 8.31905C13.15 8.57073 13.2543 8.80947 13.4324 8.98756C13.6105 9.16566 13.8493 9.26999 14.101 9.27971C14.3526 9.28943 14.5987 9.20383 14.79 9.04C14.883 8.94627 14.9936 8.87188 15.1154 8.82111C15.2373 8.77034 15.368 8.7442 15.5 8.7442C15.632 8.7442 15.7627 8.77034 15.8846 8.82111C16.0064 8.87188 16.117 8.94627 16.21 9.04C16.3974 9.22625 16.6508 9.33079 16.915 9.33079C17.1792 9.33079 17.4326 9.22625 17.62 9.04C17.8063 8.85264 17.9108 8.59919 17.9108 8.335C17.9108 8.07081 17.8063 7.81736 17.62 7.63Z" fill="#591A0E"/>
</g>
<defs>
<filter id="filter0_d_620_786" x="-2" y="0.5" width="28" height="28" filterUnits="userSpaceOnUse" color-interpolation-filters="sRGB">
<feFlood flood-opacity="0" result="BackgroundImageFix"/>
<feColorMatrix in="SourceAlpha" type="matrix" values="0 0 0 0 0 0 0 0 0 0 0 0 0 0 0 0 0 0 127 0" result="hardAlpha"/>
<feOffset dy="4"/>
<feGaussianBlur stdDeviation="2"/>
<feComposite in2="hardAlpha" operator="out"/>
<feColorMatrix type="matrix" values="0 0 0 0 0 0 0 0 0 0 0 0 0 0 0 0 0 0 0.25 0"/>
<feBlend mode="normal" in2="BackgroundImageFix" result="effect1_dropShadow_620_786"/>
<feBlend mode="normal" in="SourceGraphic" in2="effect1_dropShadow_620_786" result="shape"/>
</filter>
</defs>
</svg>
