<svg width="20" height="22" viewBox="0 0 20 22" fill="none" xmlns="http://www.w3.org/2000/svg">
<path d="M1 8.75C1 4.979 1 3.093 2.172 1.922C3.344 0.751 5.229 0.75 9 0.75H11C14.771 0.75 16.657 0.75 17.828 1.922C18.999 3.094 19 4.979 19 8.75V12.75C19 16.521 19 18.407 17.828 19.578C16.656 20.749 14.771 20.75 11 20.75H9C5.229 20.75 3.343 20.75 2.172 19.578C1.001 18.406 1 16.521 1 12.75V8.75Z" stroke="#591A0E" stroke-width="1.5"/>
<path d="M10 4.75V6.75M10 6.75V8.75M10 6.75H8M10 6.75H12M6 12.75H14M7 16.75H13" stroke="#591A0E" stroke-width="1.5" stroke-linecap="round"/>
</svg>
