<svg width="21" height="19" viewBox="0 0 21 19" fill="none" xmlns="http://www.w3.org/2000/svg">
<path d="M10.5 0.166748C11.795 0.166748 12.8333 1.20508 12.8333 2.50008C12.8333 3.79508 11.795 4.83341 10.5 4.83341C9.205 4.83341 8.16667 3.79508 8.16667 2.50008C8.16667 1.20508 9.21667 0.166748 10.5 0.166748ZM21 14.1667V11.8334C18.3867 11.8334 16.1467 10.7134 14.4667 8.70675L12.9033 6.84008C12.6863 6.57697 12.4136 6.36518 12.105 6.21995C11.7964 6.07471 11.4594 5.99963 11.1183 6.00008H9.91667C9.205 6.00008 8.55167 6.30341 8.10833 6.84008L6.545 8.70675C4.85333 10.7134 2.61333 11.8334 0 11.8334V14.1667C3.23167 14.1667 6.055 12.8017 8.16667 10.3751V13.0001L3.64 14.8084C2.85833 15.1234 2.33333 15.9167 2.33333 16.7451C2.33333 17.9001 3.26667 18.8334 4.42167 18.8334H7V18.2501C7 17.4765 7.30729 16.7347 7.85427 16.1877C8.40125 15.6407 9.14312 15.3334 9.91667 15.3334H13.4167C13.7433 15.3334 14 15.5901 14 15.9167C14 16.2434 13.7433 16.5001 13.4167 16.5001H9.91667C8.94833 16.5001 8.16667 17.2817 8.16667 18.2501V18.8334H16.5783C17.7333 18.8334 18.6667 17.9001 18.6667 16.7451C18.6667 15.9167 18.1417 15.1234 17.36 14.8084L12.8333 13.0001V10.3751C14.945 12.8017 17.7683 14.1667 21 14.1667Z" fill="#591A0E"/>
</svg>
