<svg width="18" height="19" viewBox="0 0 18 19" fill="none" xmlns="http://www.w3.org/2000/svg">
<path d="M3.18 18.256C2.73333 18.314 2.334 18.2073 1.982 17.936C1.63 17.6646 1.427 17.3053 1.373 16.858L0.144001 7.14497C0.090668 6.69697 0.201668 6.29163 0.477001 5.92896C0.752335 5.5663 1.11367 5.3643 1.561 5.32296L2.538 5.24996V12.285C2.538 13.2823 2.89133 14.1343 3.598 14.841C4.30467 15.5476 5.15667 15.901 6.154 15.901H15.339C15.341 16.1343 15.2593 16.339 15.094 16.515C14.9287 16.691 14.7253 16.7976 14.484 16.835L3.18 18.256ZM6.154 13.901C5.694 13.901 5.30967 13.7466 5.001 13.438C4.69234 13.1293 4.53833 12.745 4.539 12.285V2.05497C4.539 1.5943 4.693 1.20996 5.001 0.901965C5.309 0.593965 5.69334 0.439632 6.154 0.438965H16.384C16.8447 0.438965 17.229 0.593298 17.537 0.901965C17.845 1.21063 17.9993 1.59496 18 2.05497V12.285C18 12.745 17.8457 13.1293 17.537 13.438C17.2283 13.7466 16.844 13.901 16.384 13.901H6.154ZM9.744 9.38896L11.269 8.46797L12.794 9.38896C12.8813 9.4303 12.9613 9.42696 13.034 9.37896C13.106 9.3323 13.1253 9.2633 13.092 9.17196L12.675 7.43497L14.014 6.27796C14.084 6.21996 14.1067 6.15163 14.082 6.07296C14.0573 5.9943 13.9993 5.94663 13.908 5.92997L12.146 5.77396L11.456 4.14296C11.4227 4.05563 11.3603 4.01196 11.269 4.01196C11.1777 4.01196 11.1157 4.0553 11.083 4.14196L10.393 5.77396L8.631 5.92896C8.53967 5.9463 8.48167 5.9943 8.457 6.07296C8.43233 6.15163 8.455 6.21996 8.525 6.27796L9.864 7.43497L9.446 9.17196C9.41267 9.26263 9.43233 9.33196 9.505 9.37996C9.57767 9.42663 9.65667 9.42963 9.744 9.38896Z" fill="#591A0E"/>
</svg>
