<svg width="23" height="24" viewBox="0 0 23 24" fill="none" xmlns="http://www.w3.org/2000/svg">
<path d="M13 9.75H10V12M10 12H12.4M10 12V14.25H13M4.75 15V9M7.75 9V15M5.5 9C5.5 9.75 7 14.25 7 15M14.5 9V14.25M14.5 14.25V15M14.5 14.25C14.5 12.8625 15.4795 11.484 16.2295 11.484C16.9795 11.484 18.25 12.8625 18.25 14.25M18.25 14.25V9M18.25 14.25V15M11.5 1.5L14.3545 3.2115L17.671 3.5055L18.976 6.5685L21.4855 8.7555L20.74 12L21.4855 15.2445L18.9745 17.4315L17.671 20.4945L14.356 20.787L11.5 22.5L8.644 20.787L5.329 20.4945L4.024 17.4315L1.5145 15.2445L2.26 12L1.5145 8.7555L4.024 6.5685L5.329 3.5055L8.644 3.2115L11.5 1.5Z" stroke="#591A0E" stroke-width="1.5"/>
</svg>
