<svg width="25" height="24" viewBox="0 0 25 24" fill="none" xmlns="http://www.w3.org/2000/svg">
<g filter="url(#filter0_d_712_23)">
<path d="M4.5 7.5C4.5 4.672 4.5 3.257 5.379 2.379C6.257 1.5 7.672 1.5 10.5 1.5H14.5C17.328 1.5 18.743 1.5 19.621 2.379C20.5 3.257 20.5 4.672 20.5 7.5V15.5C20.5 18.328 20.5 19.743 19.621 20.621C18.743 21.5 17.328 21.5 14.5 21.5H10.5C7.672 21.5 6.257 21.5 5.379 20.621C4.5 19.743 4.5 18.328 4.5 15.5V7.5Z" stroke="#591A0E" stroke-width="1.5" shape-rendering="crispEdges"/>
</g>
<path opacity="0.5" d="M20.398 15.5H8.398C7.468 15.5 7.003 15.5 6.621 15.602C6.11231 15.7384 5.64849 16.0063 5.27618 16.3788C4.90386 16.7513 4.63616 17.2152 4.5 17.724" stroke="#591A0E" stroke-width="1.5"/>
<path opacity="0.5" d="M8.5 6.5H16.5M8.5 10H13.5" stroke="#591A0E" stroke-width="1.5" stroke-linecap="round"/>
<defs>
<filter id="filter0_d_712_23" x="-0.25" y="0.75" width="25.5" height="29.5" filterUnits="userSpaceOnUse" color-interpolation-filters="sRGB">
<feFlood flood-opacity="0" result="BackgroundImageFix"/>
<feColorMatrix in="SourceAlpha" type="matrix" values="0 0 0 0 0 0 0 0 0 0 0 0 0 0 0 0 0 0 127 0" result="hardAlpha"/>
<feOffset dy="4"/>
<feGaussianBlur stdDeviation="2"/>
<feComposite in2="hardAlpha" operator="out"/>
<feColorMatrix type="matrix" values="0 0 0 0 0 0 0 0 0 0 0 0 0 0 0 0 0 0 0.25 0"/>
<feBlend mode="normal" in2="BackgroundImageFix" result="effect1_dropShadow_712_23"/>
<feBlend mode="normal" in="SourceGraphic" in2="effect1_dropShadow_712_23" result="shape"/>
</filter>
</defs>
</svg>
