<svg width="20" height="25" viewBox="0 0 20 25" fill="none" xmlns="http://www.w3.org/2000/svg">
<path d="M8.54004 1.7998C10.5698 2.57603 11.9556 4.0661 12.8574 5.56836C13.206 6.14912 13.4848 6.73984 13.7061 7.30273C13.6561 7.06552 13.5936 6.84064 13.5283 6.6543L14.752 5.86133C19.0452 9.91911 19.8569 13.7025 18.8789 16.8291C17.9292 19.8649 15.3555 22.0574 13.3193 23.1592L11.4697 24.1602L12.2686 22.2148C13.4423 19.3559 13.2621 17.0782 12.5684 15.3184C12.0782 14.0752 11.319 13.0595 10.542 12.2686C10.2834 13.6029 9.86242 14.9016 9.28516 16.1328C8.88689 16.9812 7.72006 16.6702 7.64551 15.8467C7.50014 16.1466 7.3409 16.44 7.16699 16.7246L7.13281 16.7793C6.88403 17.1864 6.68413 17.6224 6.53711 18.0771C6.21595 19.0707 6.19386 20.1383 6.47363 21.1445L6.79492 22.2988L7.37207 24.376L5.62988 23.1064L4.5625 22.3271C2.94668 21.1488 1.73607 19.4935 1.09863 17.5918C0.618318 16.1586 0.635045 14.6033 1.14551 13.1807L2.93457 8.19434L3.40625 6.87793L4.24219 8C4.6759 8.58252 4.91903 9.25341 5.05469 9.86035C5.92127 8.68257 6.56673 7.47621 6.99316 6.3584C7.60184 4.76284 7.73247 3.44571 7.54395 2.67871L7.20215 1.28809L8.54004 1.7998Z" stroke="#591A0E" stroke-width="1.5"/>
</svg>
