<svg width="22" height="23" viewBox="0 0 22 23" fill="none" xmlns="http://www.w3.org/2000/svg">
<path d="M11 21.5C16.5228 21.5 21 17.0228 21 11.5C21 5.97715 16.5228 1.5 11 1.5C5.47715 1.5 1 5.97715 1 11.5C1 17.0228 5.47715 21.5 11 21.5Z" stroke="#591A0E" stroke-width="1.5" stroke-linecap="round" stroke-linejoin="round"/>
<path d="M7 14.5C7.46574 15.121 8.06966 15.625 8.76393 15.9721C9.45821 16.3193 10.2238 16.5 11 16.5C11.7762 16.5 12.5418 16.3193 13.2361 15.9721C13.9303 15.625 14.5343 15.121 15 14.5M14 7.5C14 7.5 13 8.5 13 9.5C13.75 8.5 15.25 8.5 16 9.5M8 7.5C8 7.5 9 8.5 9 9.5C8.25 8.5 6.75 8.5 6 9.5" stroke="#591A0E" stroke-width="1.5" stroke-linecap="round" stroke-linejoin="round"/>
</svg>
