<svg width="16" height="17" viewBox="0 0 16 17" fill="none" xmlns="http://www.w3.org/2000/svg">
<path d="M7.707 5.73184C7.5184 5.54969 7.2658 5.44889 7.0036 5.45117C6.7414 5.45345 6.49059 5.55862 6.30518 5.74402C6.11977 5.92943 6.0146 6.18025 6.01233 6.44244C6.01005 6.70464 6.11084 6.95724 6.293 7.14584L9.293 10.1458C9.48053 10.3333 9.73484 10.4386 10 10.4386C10.2652 10.4386 10.5195 10.3333 10.707 10.1458L13.707 7.14584C13.8892 6.95724 13.99 6.70464 13.9877 6.44244C13.9854 6.18025 13.8802 5.92943 13.6948 5.74402C13.5094 5.55862 13.2586 5.45345 12.9964 5.45117C12.7342 5.44889 12.4816 5.54969 12.293 5.73184L11 7.02484V3.43884H14C14.5304 3.43884 15.0391 3.64956 15.4142 4.02463C15.7893 4.3997 16 4.90841 16 5.43884V10.4388C16 10.9693 15.7893 11.478 15.4142 11.8531C15.0391 12.2281 14.5304 12.4388 14 12.4388H6C5.46957 12.4388 4.96086 12.2281 4.58579 11.8531C4.21071 11.478 4 10.9693 4 10.4388V5.43884C4 4.90841 4.21071 4.3997 4.58579 4.02463C4.96086 3.64956 5.46957 3.43884 6 3.43884H9V7.02484L7.707 5.73184ZM9 1.43884C9 1.17363 9.10536 0.919272 9.29289 0.731736C9.48043 0.5442 9.73478 0.438843 10 0.438843C10.2652 0.438843 10.5196 0.5442 10.7071 0.731736C10.8946 0.919272 11 1.17363 11 1.43884V3.43884H9V1.43884Z" fill="#591A0E"/>
<path d="M2 7.43884C1.46957 7.43884 0.960859 7.64956 0.585786 8.02463C0.210714 8.3997 0 8.90841 0 9.43884V14.4388C0 14.9693 0.210714 15.478 0.585786 15.8531C0.960859 16.2281 1.46957 16.4388 2 16.4388H10C10.5304 16.4388 11.0391 16.2281 11.4142 15.8531C11.7893 15.478 12 14.9693 12 14.4388H2V7.43884Z" fill="#591A0E"/>
</svg>
