<svg width="16" height="17" viewBox="0 0 16 17" fill="none" xmlns="http://www.w3.org/2000/svg">
<path d="M9.72728 3.18195C9.72728 3.66416 9.53572 4.12662 9.19474 4.4676C8.85377 4.80857 8.39131 5.00013 7.90909 5.00013C7.42688 5.00013 6.96442 4.80857 6.62344 4.4676C6.28247 4.12662 6.09091 3.66416 6.09091 3.18195C6.09091 2.69974 6.28247 2.23728 6.62344 1.8963C6.96442 1.55533 7.42688 1.36377 7.90909 1.36377C8.39131 1.36377 8.85377 1.55533 9.19474 1.8963C9.53572 2.23728 9.72728 2.69974 9.72728 3.18195Z" stroke="#591A0E" stroke-width="1.63636"/>
<path d="M14.4545 12.273L13.6124 11.9894C13.4472 11.9336 13.2902 11.8561 13.1455 11.7588L13.072 11.7086C12.8255 11.5418 12.6237 11.3171 12.4843 11.0541C12.345 10.7911 12.2723 10.4979 12.2727 10.2003C12.2727 8.42791 11.0044 6.91518 9.27418 6.62355L8.62691 6.51445C8.27272 6.45482 7.54545 6.45482 7.19127 6.51445L6.54327 6.62355C4.81309 6.91518 3.54545 8.42791 3.54545 10.2003C3.54586 10.4979 3.4732 10.7911 3.33384 11.0541C3.19448 11.3171 2.99269 11.5418 2.74618 11.7086L2.67345 11.7588C2.52751 11.8563 2.37163 11.9331 2.20581 11.9894L1.36363 12.273" stroke="#591A0E" stroke-width="1.63636" stroke-linecap="round" stroke-linejoin="round"/>
<path d="M6.0909 11.5457L5.41817 12.4424C5.31126 12.5849 5.25817 12.6569 5.19708 12.7195C5.04802 12.8753 4.86618 12.996 4.66471 13.0729C4.58326 13.1042 4.49744 13.126 4.3229 13.1697L3.0189 13.4955C2.72919 13.5684 2.4761 13.7447 2.30723 13.9911C2.13835 14.2376 2.06532 14.5372 2.10185 14.8337C2.13839 15.1302 2.28199 15.4032 2.50564 15.6012C2.72929 15.7993 3.0176 15.9089 3.31635 15.9093H3.81308C5.05599 15.9093 6.26399 15.5064 7.25817 14.7609L8.63635 13.7275M9.72726 11.5457L10.256 12.2504C10.5054 12.5835 10.6305 12.75 10.7927 12.8729C10.8412 12.9098 10.8921 12.9437 10.9454 12.9747C11.1214 13.0766 11.3236 13.1267 11.7273 13.2278L12.7993 13.4955C13.089 13.5684 13.3421 13.7447 13.5109 13.9911C13.6798 14.2376 13.7528 14.5372 13.7163 14.8337C13.6798 15.1302 13.5362 15.4032 13.3125 15.6012C13.0889 15.7993 12.8006 15.9089 12.5018 15.9093H11.8204C11.4109 15.9093 11.2065 15.9093 11.0036 15.8977C10.4048 15.8641 9.81242 15.7566 9.23999 15.5777C9.04581 15.5173 8.85453 15.446 8.47199 15.302L7.18181 14.8184" stroke="#591A0E" stroke-width="1.63636" stroke-linecap="round" stroke-linejoin="round"/>
</svg>
