<svg width="22" height="22" viewBox="0 0 22 22" fill="none" xmlns="http://www.w3.org/2000/svg">
<path d="M9 9C11.2091 9 13 7.20914 13 5C13 2.79086 11.2091 1 9 1C6.79086 1 5 2.79086 5 5C5 7.20914 6.79086 9 9 9Z" stroke="#52180D" stroke-width="1.5"/>
<path d="M18 7.68994L17.481 8.23194C17.6206 8.36579 17.8066 8.44052 18 8.44052C18.1934 8.44052 18.3794 8.36579 18.519 8.23194L18 7.68994ZM17.486 10.7599C17.069 10.4529 16.608 10.0699 16.259 9.66694C15.891 9.24094 15.75 8.90994 15.75 8.69594H14.25C14.25 9.46594 14.691 10.1459 15.125 10.6479C15.578 11.1729 16.139 11.6319 16.599 11.9689L17.486 10.7599ZM15.75 8.69594C15.75 8.11994 16.013 7.86994 16.242 7.78994C16.492 7.70194 16.956 7.72994 17.482 8.23294L18.519 7.14994C17.694 6.35994 16.658 6.05394 15.746 6.37394C14.813 6.70094 14.25 7.59894 14.25 8.69594H15.75ZM19.4 11.9699C19.86 11.6329 20.422 11.1739 20.875 10.6499C21.309 10.1479 21.75 9.46694 21.75 8.69694H20.25C20.25 8.91094 20.109 9.24194 19.74 9.66794C19.392 10.0709 18.931 10.4539 18.514 10.7609L19.4 11.9699ZM21.75 8.69694C21.75 7.59994 21.188 6.70094 20.254 6.37394C19.342 6.05394 18.306 6.35994 17.481 7.14994L18.519 8.23194C19.044 7.72894 19.508 7.70194 19.759 7.78994C19.987 7.86994 20.25 8.11994 20.25 8.69694H21.75ZM16.6 11.9699C16.968 12.2399 17.382 12.5779 18 12.5779V11.0779C17.976 11.0779 17.96 11.0779 17.906 11.0479C17.7601 10.9613 17.6208 10.8654 17.487 10.7609L16.6 11.9699ZM18.513 10.7599C18.3793 10.8651 18.239 10.9616 18.093 11.0489C18.04 11.0779 18.024 11.0779 18 11.0779V12.5779C18.618 12.5779 19.032 12.2409 19.4 11.9699L18.513 10.7599Z" fill="#52180D"/>
<path d="M16.998 17C16.9993 16.836 17 16.6693 17 16.5C17 14.015 13.418 12 9 12C4.582 12 1 14.015 1 16.5C1 18.985 1 21 9 21C11.231 21 12.84 20.843 14 20.563" stroke="#52180D" stroke-width="1.5" stroke-linecap="round"/>
</svg>
