<svg width="20" height="20" viewBox="0 0 20 20" fill="none" xmlns="http://www.w3.org/2000/svg">
<path d="M9 0C7.67392 0 6.40215 0.526784 5.46447 1.46447C4.52678 2.40215 4 3.67392 4 5C4 6.32608 4.52678 7.59785 5.46447 8.53553C6.40215 9.47322 7.67392 10 9 10C10.3261 10 11.5979 9.47322 12.5355 8.53553C13.4732 7.59785 14 6.32608 14 5C14 3.67392 13.4732 2.40215 12.5355 1.46447C11.5979 0.526784 10.3261 0 9 0ZM9 11C6.605 11 4.425 11.694 2.822 12.672C2.022 13.16 1.338 13.736 0.844 14.362C0.358 14.976 0 15.713 0 16.5C0 17.345 0.411 18.011 1.003 18.486C1.563 18.936 2.302 19.234 3.087 19.442C4.665 19.859 6.771 20 9 20L9.685 19.995C9.85248 19.9927 10.0167 19.9484 10.1626 19.8661C10.3085 19.7838 10.4313 19.6662 10.5199 19.524C10.6085 19.3819 10.66 19.2198 10.6696 19.0525C10.6792 18.8853 10.6467 18.7184 10.575 18.567C10.1958 17.7644 9.99942 16.8877 10 16C10 14.748 10.383 13.588 11.037 12.627C11.1342 12.4842 11.1928 12.3186 11.207 12.1465C11.2212 11.9743 11.1905 11.8014 11.118 11.6446C11.0455 11.4878 10.9336 11.3524 10.7932 11.2517C10.6528 11.151 10.4888 11.0884 10.317 11.07C9.88633 11.0233 9.44733 11 9 11ZM13.5 12.691C14.253 12.252 15.179 12.195 16 12.645C16.821 12.195 17.747 12.252 18.5 12.691C19.416 13.225 20.026 14.281 20 15.479C19.964 17.049 18.752 18.277 17.114 19.25C16.771 19.453 16.411 19.667 16 19.667C15.59 19.667 15.229 19.453 14.886 19.25C13.248 18.277 12.036 17.048 12.001 15.48C11.974 14.282 12.584 13.225 13.5 12.691Z" fill="#52180D"/>
</svg>
