<svg width="20" height="20" viewBox="0 0 20 20" fill="none" xmlns="http://www.w3.org/2000/svg">
<path d="M6.625 15.65C6.625 17.224 5.365 18.5 3.813 18.5C2.259 18.5 1 17.224 1 15.65C1 14.077 2.26 12.801 3.813 12.801C5.366 12.801 6.625 14.076 6.625 15.65ZM6.625 15.65V3.462C6.625 2.942 7.019 2.508 7.534 2.461L17.909 1.505C18.0479 1.49232 18.1878 1.5088 18.3199 1.55341C18.452 1.59801 18.5733 1.66975 18.6761 1.76401C18.7788 1.85827 18.8607 1.97298 18.9165 2.10076C18.9723 2.22854 19.0007 2.36658 19 2.506V14.51C19 16.083 17.74 17.36 16.188 17.36C14.634 17.36 13.375 16.083 13.375 14.51C13.375 12.937 14.635 11.66 16.188 11.66C17.741 11.66 19 12.938 19 14.512" stroke="#52180D" stroke-width="1.5" stroke-linecap="round" stroke-linejoin="round"/>
</svg>
