<svg width="20" height="15" viewBox="0 0 20 15" fill="none" xmlns="http://www.w3.org/2000/svg">
<path d="M8.875 1.75V10C8.87376 11.1931 8.39925 12.337 7.55561 13.1806C6.71197 14.0243 5.56809 14.4988 4.375 14.5C4.17609 14.5 3.98532 14.421 3.84467 14.2803C3.70402 14.1397 3.625 13.9489 3.625 13.75C3.625 13.5511 3.70402 13.3603 3.84467 13.2197C3.98532 13.079 4.17609 13 4.375 13C5.17065 13 5.93371 12.6839 6.49632 12.1213C7.05893 11.5587 7.375 10.7956 7.375 10V9.25H1.75C1.35218 9.25 0.970644 9.09196 0.68934 8.81066C0.408035 8.52936 0.25 8.14782 0.25 7.75V1.75C0.25 1.35218 0.408035 0.970644 0.68934 0.68934C0.970644 0.408035 1.35218 0.25 1.75 0.25H7.375C7.77282 0.25 8.15436 0.408035 8.43566 0.68934C8.71696 0.970644 8.875 1.35218 8.875 1.75ZM18.25 0.25H12.625C12.2272 0.25 11.8456 0.408035 11.5643 0.68934C11.283 0.970644 11.125 1.35218 11.125 1.75V7.75C11.125 8.14782 11.283 8.52936 11.5643 8.81066C11.8456 9.09196 12.2272 9.25 12.625 9.25H18.25V10C18.25 10.7956 17.9339 11.5587 17.3713 12.1213C16.8087 12.6839 16.0456 13 15.25 13C15.0511 13 14.8603 13.079 14.7197 13.2197C14.579 13.3603 14.5 13.5511 14.5 13.75C14.5 13.9489 14.579 14.1397 14.7197 14.2803C14.8603 14.421 15.0511 14.5 15.25 14.5C16.4431 14.4988 17.587 14.0243 18.4306 13.1806C19.2743 12.337 19.7488 11.1931 19.75 10V1.75C19.75 1.35218 19.592 0.970644 19.3107 0.68934C19.0294 0.408035 18.6478 0.25 18.25 0.25Z" fill="#52180D"/>
</svg>
